<?xml version="1.0" standalone="no"?><svg xmlns="http://www.w3.org/2000/svg" viewBox="0 0 1440 320"><path fill="#e7345c" fill-opacity="1" d="M0,288L26.7,245.3C53.3,203,107,117,160,69.3C213.3,21,267,11,320,16C373.3,21,427,43,480,90.7C533.3,139,587,213,640,218.7C693.3,224,747,160,800,165.3C853.3,171,907,245,960,250.7C1013.3,256,1067,192,1120,170.7C1173.3,149,1227,171,1280,154.7C1333.3,139,1387,85,1413,58.7L1440,32L1440,0L1413.3,0C1386.7,0,1333,0,1280,0C1226.7,0,1173,0,1120,0C1066.7,0,1013,0,960,0C906.7,0,853,0,800,0C746.7,0,693,0,640,0C586.7,0,533,0,480,0C426.7,0,373,0,320,0C266.7,0,213,0,160,0C106.7,0,53,0,27,0L0,0Z"></path></svg>